<?xml version="1.0" encoding="utf-8"?>
<!-- Generator: Adobe Illustrator 24.2.0, SVG Export Plug-In . SVG Version: 6.00 Build 0)  -->
<svg version="1.1" id="Capa_1" xmlns="http://www.w3.org/2000/svg" xmlns:xlink="http://www.w3.org/1999/xlink" x="0px" y="0px"
	 viewBox="0 0 1080 1080" style="enable-background:new 0 0 1080 1080;" xml:space="preserve">
<style type="text/css">
</style>
<path class="st0" fill='#FFFFFF' d="M526.7,605.9c-125.3,0-227.3-102-227.3-227.3s101.9-227.3,227.3-227.3S754,253.3,754,378.6
	S652.1,605.9,526.7,605.9z M526.7,185.5c-106.5,0-193.1,86.6-193.1,193.1s86.6,193.1,193.1,193.1s193.1-86.6,193.1-193.1
	C719.8,272.1,633.2,185.5,526.7,185.5z"/>
<path class="st0" fill='#FFFFFF' d="M898.7,925.7H180.9v-77.2c0-121.3,86.8-224.1,206.4-244.4l0,0c5-0.8,10.1,0.6,14,3.9l0,0
	c35,30,79.5,46.5,125.4,46.5c47.1,0,92.7-17.4,128.1-49l0,0c3.4-3.1,7.9-4.6,12.5-4.3l0,0c129.8,8.7,231.4,117.3,231.4,247.3
	L898.7,925.7L898.7,925.7z M215.1,891.5h649.4v-42.9c0-109.7-84-201.8-192.5-212.6c-40.9,34.1-92.2,52.8-145.3,52.8
	c-51.3,0-101.1-17.5-141.2-49.4c-99.2,20.5-170.4,107.2-170.4,209.2V891.5z"/>
</svg>
